<?xml version="1.0" encoding="UTF-8"?>
<!DOCTYPE svg PUBLIC "-//W3C//DTD SVG 1.1//EN" "http://www.w3.org/Graphics/SVG/1.1/DTD/svg11.dtd">
<svg xmlns="http://www.w3.org/2000/svg" version="1.1" width="377px" height="401px" style="shape-rendering:geometricPrecision; text-rendering:geometricPrecision; image-rendering:optimizeQuality; fill-rule:evenodd; clip-rule:evenodd" xmlns:xlink="http://www.w3.org/1999/xlink">
<g><path style="opacity:0.998" fill="#f8f8f8" d="M 140.5,90.5 C 141.568,91.4345 142.901,91.7678 144.5,91.5C 152.878,93.6915 159.544,98.3582 164.5,105.5C 164.427,107.027 165.094,108.027 166.5,108.5C 166.427,110.027 167.094,111.027 168.5,111.5C 170.674,114.515 172.341,117.849 173.5,121.5C 173.427,123.027 174.094,124.027 175.5,124.5C 176.404,125.209 176.737,126.209 176.5,127.5C 176.427,129.027 177.094,130.027 178.5,130.5C 181.674,135.516 184.341,140.849 186.5,146.5C 186.427,148.027 187.094,149.027 188.5,149.5C 188.5,149.833 188.5,150.167 188.5,150.5C 188.427,152.027 189.094,153.027 190.5,153.5C 195.675,162.516 200.341,171.849 204.5,181.5C 204.427,183.027 205.094,184.027 206.5,184.5C 207.441,186.05 208.107,187.716 208.5,189.5C 208.427,191.027 209.094,192.027 210.5,192.5C 214.675,199.516 218.341,206.849 221.5,214.5C 221.427,216.027 222.094,217.027 223.5,217.5C 224.404,218.209 224.737,219.209 224.5,220.5C 224.427,222.027 225.094,223.027 226.5,223.5C 230.646,228.79 232.812,234.79 233,241.5C 225.278,260.771 217.111,279.771 208.5,298.5C 207.596,299.209 207.263,300.209 207.5,301.5C 206.069,302.78 205.402,304.447 205.5,306.5C 203.707,308.426 202.707,310.759 202.5,313.5C 201.167,317.5 199.833,317.5 198.5,313.5C 198.008,311.181 197.008,309.181 195.5,307.5C 193.659,305.151 192.326,302.485 191.5,299.5C 191.34,297.847 190.674,296.514 189.5,295.5C 183.736,286.307 178.736,276.641 174.5,266.5C 174.25,264.326 173.25,262.659 171.5,261.5C 167.325,254.484 163.659,247.151 160.5,239.5C 159.59,236.008 157.924,233.008 155.5,230.5C 155.539,227.911 154.539,225.911 152.5,224.5C 151.326,223.486 150.66,222.153 150.5,220.5C 147.594,213.019 143.928,206.019 139.5,199.5C 139.539,196.911 138.539,194.911 136.5,193.5C 132.992,187.818 129.992,181.818 127.5,175.5C 127.573,173.973 126.906,172.973 125.5,172.5C 123.659,170.151 122.326,167.485 121.5,164.5C 121.737,163.209 121.404,162.209 120.5,161.5C 120.5,160.833 120.167,160.5 119.5,160.5C 119.715,158.821 119.048,157.821 117.5,157.5C 114.93,152.689 112.597,147.689 110.5,142.5C 109.258,138.345 107.258,134.678 104.5,131.5C 100.323,124.48 96.6565,117.146 93.5,109.5C 93.2503,107.326 92.2503,105.659 90.5,104.5C 90.1667,103.833 89.8333,103.167 89.5,102.5C 89.539,99.911 88.539,97.911 86.5,96.5C 86.3404,94.847 85.6737,93.5137 84.5,92.5C 83.3157,91.3121 83.3157,90.1455 84.5,89C 101.833,88.3333 119.167,88.3333 136.5,89C 137.901,89.4101 139.234,89.9101 140.5,90.5 Z"/></g>
<g><path style="opacity:0.995" fill="#efefef" d="M 284.5,94.5 C 284.427,96.0269 285.094,97.0269 286.5,97.5C 287.162,101.466 287.495,105.466 287.5,109.5C 287.138,113.259 285.805,116.593 283.5,119.5C 282.596,120.209 282.263,121.209 282.5,122.5C 282.167,123.167 281.833,123.833 281.5,124.5C 280.596,125.209 280.263,126.209 280.5,127.5C 277.344,134.491 274.344,141.491 271.5,148.5C 270.069,149.78 269.402,151.447 269.5,153.5C 268.069,154.78 267.402,156.447 267.5,158.5C 265.707,160.426 264.707,162.759 264.5,165.5C 263.923,167.652 262.756,167.985 261,166.5C 248.542,141.084 235.709,115.917 222.5,91C 222.645,90.228 222.978,89.5613 223.5,89C 240.833,88.3333 258.167,88.3333 275.5,89C 279.156,89.8248 282.156,91.6582 284.5,94.5 Z"/></g>
<g><path style="opacity:0.055" fill="#3d3d3d" d="M 144.5,91.5 C 142.901,91.7678 141.568,91.4345 140.5,90.5C 140.435,90.0618 140.601,89.7284 141,89.5C 142.302,90.0848 143.469,90.7515 144.5,91.5 Z"/></g>
<g><path style="opacity:0.055" fill="#1b1b1b" d="M 84.5,92.5 C 85.6737,93.5137 86.3404,94.847 86.5,96.5C 84.8958,95.713 84.2291,94.3797 84.5,92.5 Z"/></g>
<g><path style="opacity:0.133" fill="#424242" d="M 284.5,94.5 C 285.906,94.9731 286.573,95.9731 286.5,97.5C 285.094,97.0269 284.427,96.0269 284.5,94.5 Z"/></g>
<g><path style="opacity:0.043" fill="#2f2f2f" d="M 86.5,96.5 C 88.539,97.911 89.539,99.911 89.5,102.5C 87.9925,100.819 86.9925,98.8185 86.5,96.5 Z"/></g>
<g><path style="opacity:0.071" fill="#3f3f3f" d="M 286.5,97.5 C 288.017,99.4621 288.684,101.795 288.5,104.5C 288.493,106.369 288.16,108.036 287.5,109.5C 287.495,105.466 287.162,101.466 286.5,97.5 Z"/></g>
<g><path style="opacity:0.024" fill="#2d2d2d" d="M 90.5,104.5 C 92.2503,105.659 93.2503,107.326 93.5,109.5C 91.7497,108.341 90.7497,106.674 90.5,104.5 Z"/></g>
<g><path style="opacity:0.118" fill="#414141" d="M 164.5,105.5 C 165.906,105.973 166.573,106.973 166.5,108.5C 165.094,108.027 164.427,107.027 164.5,105.5 Z"/></g>
<g><path style="opacity:0.102" fill="#424242" d="M 166.5,108.5 C 167.906,108.973 168.573,109.973 168.5,111.5C 167.094,111.027 166.427,110.027 166.5,108.5 Z"/></g>
<g><path style="opacity:0.086" fill="#2c2c2c" d="M 283.5,119.5 C 283.938,119.435 284.272,119.601 284.5,120C 283.934,120.995 283.267,121.828 282.5,122.5C 282.263,121.209 282.596,120.209 283.5,119.5 Z"/></g>
<g><path style="opacity:0.043" fill="#343434" d="M 173.5,121.5 C 174.906,121.973 175.573,122.973 175.5,124.5C 174.094,124.027 173.427,123.027 173.5,121.5 Z"/></g>
<g><path style="opacity:0.014" fill="#101010" d="M 281.5,124.5 C 281.938,124.435 282.272,124.601 282.5,125C 281.934,125.995 281.267,126.828 280.5,127.5C 280.263,126.209 280.596,125.209 281.5,124.5 Z"/></g>
<g><path style="opacity:0.071" fill="#424242" d="M 176.5,127.5 C 177.906,127.973 178.573,128.973 178.5,130.5C 177.094,130.027 176.427,129.027 176.5,127.5 Z"/></g>
<g><path style="opacity:0.024" fill="#2e2e2e" d="M 104.5,131.5 C 107.258,134.678 109.258,138.345 110.5,142.5C 107.742,139.322 105.742,135.655 104.5,131.5 Z"/></g>
<g><path style="opacity:0.031" fill="#292929" d="M 186.5,146.5 C 187.906,146.973 188.573,147.973 188.5,149.5C 187.094,149.027 186.427,148.027 186.5,146.5 Z"/></g>
<g><path style="opacity:0.047" fill="#363636" d="M 271.5,148.5 C 271.598,150.553 270.931,152.22 269.5,153.5C 269.402,151.447 270.069,149.78 271.5,148.5 Z"/></g>
<g><path style="opacity:0.043" fill="#373737" d="M 188.5,150.5 C 189.906,150.973 190.573,151.973 190.5,153.5C 189.094,153.027 188.427,152.027 188.5,150.5 Z"/></g>
<g><path style="opacity:0.043" fill="#2b2b2b" d="M 269.5,153.5 C 269.598,155.553 268.931,157.22 267.5,158.5C 267.402,156.447 268.069,154.78 269.5,153.5 Z"/></g>
<g><path style="opacity:0.024" fill="#2b2b2b" d="M 117.5,157.5 C 119.048,157.821 119.715,158.821 119.5,160.5C 118.599,159.71 117.932,158.71 117.5,157.5 Z"/></g>
<g><path style="opacity:0.055" fill="#242424" d="M 267.5,158.5 C 267.293,161.241 266.293,163.574 264.5,165.5C 264.707,162.759 265.707,160.426 267.5,158.5 Z"/></g>
<g><path style="opacity:0.027" fill="#282828" d="M 120.5,161.5 C 121.404,162.209 121.737,163.209 121.5,164.5C 120.733,163.828 120.066,162.995 119.5,162C 119.728,161.601 120.062,161.435 120.5,161.5 Z"/></g>
<g><path style="opacity:0.051" fill="#212121" d="M 125.5,172.5 C 126.906,172.973 127.573,173.973 127.5,175.5C 126.094,175.027 125.427,174.027 125.5,172.5 Z"/></g>
<g><path style="opacity:0.024" fill="#353535" d="M 204.5,181.5 C 205.906,181.973 206.573,182.973 206.5,184.5C 205.094,184.027 204.427,183.027 204.5,181.5 Z"/></g>
<g><path style="opacity:0.047" fill="#363636" d="M 208.5,189.5 C 209.906,189.973 210.573,190.973 210.5,192.5C 209.094,192.027 208.427,191.027 208.5,189.5 Z"/></g>
<g><path style="opacity:0.055" fill="#343434" d="M 136.5,193.5 C 138.539,194.911 139.539,196.911 139.5,199.5C 137.992,197.819 136.992,195.819 136.5,193.5 Z"/></g>
<g><path style="opacity:0.047" fill="#232323" d="M 139.5,199.5 C 143.928,206.019 147.594,213.019 150.5,220.5C 146.072,213.981 142.406,206.981 139.5,199.5 Z"/></g>
<g><path style="opacity:0.035" fill="#2b2b2b" d="M 221.5,214.5 C 222.906,214.973 223.573,215.973 223.5,217.5C 222.094,217.027 221.427,216.027 221.5,214.5 Z"/></g>
<g><path style="opacity:0.059" fill="#353535" d="M 224.5,220.5 C 225.906,220.973 226.573,221.973 226.5,223.5C 225.094,223.027 224.427,222.027 224.5,220.5 Z"/></g>
<g><path style="opacity:0.047" fill="#333333" d="M 152.5,224.5 C 154.539,225.911 155.539,227.911 155.5,230.5C 153.992,228.819 152.992,226.819 152.5,224.5 Z"/></g>
<g><path style="opacity:0.039" fill="#2b2b2b" d="M 155.5,230.5 C 157.924,233.008 159.59,236.008 160.5,239.5C 158.076,236.992 156.41,233.992 155.5,230.5 Z"/></g>
<g><path style="opacity:0.024" fill="#333333" d="M 171.5,261.5 C 173.25,262.659 174.25,264.326 174.5,266.5C 172.75,265.341 171.75,263.674 171.5,261.5 Z"/></g>
<g><path style="opacity:0.043" fill="#3e3e3e" d="M 189.5,295.5 C 190.674,296.514 191.34,297.847 191.5,299.5C 189.896,298.713 189.229,297.38 189.5,295.5 Z"/></g>
<g><path style="opacity:0.071" fill="#2c2c2c" d="M 208.5,298.5 C 208.938,298.435 209.272,298.601 209.5,299C 208.934,299.995 208.267,300.828 207.5,301.5C 207.263,300.209 207.596,299.209 208.5,298.5 Z"/></g>
<g><path style="opacity:0.067" fill="#212121" d="M 207.5,301.5 C 207.598,303.553 206.931,305.22 205.5,306.5C 205.402,304.447 206.069,302.78 207.5,301.5 Z"/></g>
<g><path style="opacity:0.039" fill="#242424" d="M 195.5,307.5 C 197.008,309.181 198.008,311.181 198.5,313.5C 196.461,312.089 195.461,310.089 195.5,307.5 Z"/></g>
<g><path style="opacity:0.067" fill="#1f1f1f" d="M 205.5,306.5 C 205.293,309.241 204.293,311.574 202.5,313.5C 202.707,310.759 203.707,308.426 205.5,306.5 Z"/></g>
</svg>
