<svg width="380.000000pt" height="401.000000pt" viewBox="0 0 380.000000 401.000000" xmlns="http://www.w3.org/2000/svg">
  <g transform="translate(0.000000,401.000000) scale(0.100000,-0.100000)" fill="#fefefe" stroke="none">
    <path d="M0 2005 l0 -2005 1900 0 1900 0 0 2005 0 2005 -1900 0 -1900 0 0
-2005z" />
  </g>
  <g transform="translate(0.000000,401.000000) scale(0.100000,-0.100000)" fill="#f5f5f5" stroke="none">
    <path d="M854 3109 l-7 -11 48 -92 c26 -50 51 -95 55 -99 4 -5 10 -1 14 8 l6
16 -9 -5 c-12 -8 -23 22 -14 37 l6 12 -8 -7 c-5 -5 -25 22 -46 60 -39 68 -46
88 -30 77 5 -3 12 -1 16 5 l6 10 -15 0 c-8 0 -18 -5 -22 -11z" />
    <path d="M940 3114 c81 -8 438 -8 433 -1 -2 4 -109 6 -236 5 -128 -1 -216 -3
-197 -4z" />
    <path d="M2393 3113 c37 -2 96 -2 130 0 34 2 4 3 -68 3 -71 0 -99 -1 -62 -3z" />
    <path d="M2705 3115 c6 -2 32 -6 59 -10 l49 -7 -14 -10 -14 -10 18 6 17 5 31
-27 c16 -15 31 -34 33 -42 5 -23 25 -66 25 -55 2 24 -19 74 -39 98 -28 32 -89
57 -138 56 -20 0 -32 -2 -27 -4z" />
    <path d="M1404 3102 c10 -9 89 -32 94 -27 6 5 -39 23 -74 29 -15 3 -23 2 -20
-2z" />
    <path d="M2250 3106 c0 -9 89 -186 94 -186 2 0 9 7 16 15 l13 15 -15 -5 -15
-6 -14 33 c-8 18 -13 36 -11 41 1 4 -2 7 -7 7 -5 0 -13 10 -17 23 -7 22 -44
76 -44 63z" />
    <path d="M1313 3093 c4 -3 10 -3 14 0 3 4 0 7 -7 7 -7 0 -10 -3 -7 -7z" />
    <path d="M1510 3066 c0 -2 19 -16 41 -31 l42 -27 -14 -10 -14 -10 16 5 16 5
38 -38 37 -38 -7 -13 -8 -12 11 7 11 6 46 -92 c26 -51 52 -98 57 -105 5 -7 6
-18 2 -24 l-7 -12 13 8 13 8 -5 -15 -6 -15 14 0 c16 0 18 9 5 23 -5 5 -35 61
-67 124 l-59 115 -51 53 c-28 29 -64 62 -80 73 -27 18 -44 24 -44 15z" />
    <path d="M2855 2990 c3 -5 8 -10 11 -10 3 0 2 5 -1 10 -3 6 -8 10 -11 10 -3 0
-2 -4 1 -10z" />
    <path d="M2891 2912 c0 -7 -10 -31 -20 -55 -11 -23 -22 -53 -26 -66 l-7 -24
11 7 c6 4 11 13 11 20 0 7 9 31 21 55 11 23 18 50 16 59 -3 9 -5 11 -6 4z" />
    <path d="M960 2882 c0 -11 152 -293 156 -289 3 2 -1 16 -7 30 l-12 26 14 18
14 18 -16 -13 -17 -13 -26 47 c-14 25 -23 50 -20 55 3 5 1 9 -4 9 -12 0 -65
98 -58 108 3 5 -1 9 -9 9 -8 0 -15 -2 -15 -5z" />
    <path d="M1034 2878 l-7 -11 11 7 c12 7 16 16 8 16 -3 0 -8 -5 -12 -12z" />
    <path d="M2380 2844 c0 -5 10 -25 21 -44 12 -19 68 -127 125 -240 57 -113 108
-212 114 -220 l11 -15 -6 34 -7 34 13 -8 14 -8 -8 9 c-5 5 -14 9 -20 9 -7 1
-11 6 -9 13 1 7 -2 12 -6 12 -12 0 -63 96 -55 104 3 3 2 6 -4 6 -11 0 -48 78
-45 93 1 4 -2 7 -7 7 -10 0 -27 39 -23 53 1 4 -2 7 -6 7 -12 0 -33 50 -26 61
3 5 0 8 -8 7 l-13 -3 1 17 c1 10 -2 15 -7 12 -5 -2 -11 6 -15 20 -6 25 -34 57
-34 40z" />
    <path d="M2810 2708 c-8 -21 -18 -38 -24 -38 -5 0 -6 -3 -3 -7 4 -3 2 -13 -5
-20 -10 -13 -19 -53 -12 -53 8 0 64 134 61 144 -2 6 -10 -6 -17 -26z" />
    <path d="M1823 2630 c1 -11 4 -20 8 -20 3 0 11 -12 18 -26 6 -15 14 -24 17
-21 5 5 -33 87 -41 87 -2 0 -3 -9 -2 -20z" />
    <path d="M1120 2577 c0 -4 10 -27 22 -52 12 -25 28 -45 36 -45 l13 0 -15 16
c-14 13 -18 24 -18 44 0 3 -9 14 -19 24 -11 11 -19 17 -19 13z" />
    <path d="M2723 2502 c-14 -34 -29 -59 -34 -57 -4 3 -5 -4 -2 -15 3 -11 1 -20
-4 -20 -5 0 -10 -12 -11 -27 -1 -14 1 -23 5 -20 11 12 83 191 78 196 -3 2 -17
-23 -32 -57z" />
    <path d="M1880 2524 c0 -6 9 -23 20 -37 l20 -25 -12 -5 -13 -5 17 -1 c14 -1
31 -28 33 -54 0 -4 5 -11 11 -15 17 -11 44 -73 37 -85 l-6 -10 10 6 10 6 44
-92 c24 -51 43 -95 41 -99 -1 -5 3 -8 8 -8 6 0 15 -12 21 -26 5 -15 12 -24 15
-21 8 7 -203 420 -232 454 -13 15 -24 23 -24 17z" />
    <path d="M1187 2435 c9 -19 21 -35 25 -35 5 0 4 8 -1 19 -6 10 -7 22 -3 26 4
5 1 5 -5 1 l-13 -7 0 15 c0 9 -4 16 -10 16 l-10 0 17 -35z" />
    <path d="M1216 2375 c4 -8 10 -15 16 -15 5 0 7 -4 3 -9 -3 -5 2 -16 10 -25 9
-8 15 -19 15 -23 -1 -4 3 -9 9 -11 14 -5 14 15 1 23 -6 4 -17 22 -25 41 -8 19
-19 34 -24 34 -6 0 -8 -7 -5 -15z" />
    <path d="M1280 2269 c0 -8 7 -24 15 -35 l15 -19 -3 23 c-2 12 -9 28 -15 34
l-12 12 0 -15z" />
    <path d="M1354 2238 l-7 -11 11 7 c7 4 12 9 12 12 0 8 -9 4 -16 -8z" />
    <path d="M1310 2205 c0 -1 7 -16 16 -34 l16 -31 11 7 11 7 -12 4 -13 4 12 14
12 14 -18 -7 -18 -6 5 15 6 15 -14 0 c-8 0 -14 -1 -14 -2z" />
    <path d="M1350 2125 c0 -12 120 -239 132 -250 l11 -10 -7 20 c-5 11 -9 27 -11
35 -2 8 -4 17 -5 20 -1 3 -2 9 -1 13 1 5 -3 6 -8 3 -9 -6 -27 31 -23 47 1 4
-3 7 -9 7 l-11 0 6 15 6 16 -16 6 -15 6 5 14 6 14 -10 -6 -10 -6 -1 18 c-1 10
0 23 1 28 1 6 -2 7 -6 3 -4 -4 -13 -3 -21 3 -7 6 -13 8 -13 4z" />
    <path d="M2134 2029 l-7 -12 10 6 9 6 23 -46 c12 -25 24 -43 27 -40 6 6 -32
83 -45 91 -5 4 -13 1 -17 -5z" />
    <path d="M2144 1968 l-7 -11 11 7 c7 4 12 9 12 12 0 8 -9 4 -16 -8z" />
    <path d="M2200 1915 c0 -4 11 -26 25 -49 14 -24 22 -46 18 -49 -3 -4 -1 -7 7
-7 l12 0 -12 -15 -13 -15 14 5 14 5 14 -22 14 -22 -12 -4 c-6 -2 -11 -8 -11
-14 l0 -10 17 13 17 14 -7 -17 -6 -17 13 -8 c7 -5 16 -17 20 -28 l8 -20 5 13
c3 6 -13 42 -34 80 -21 37 -48 88 -60 114 -20 41 -43 70 -43 53z" />
    <path d="M1490 1851 c0 -5 5 -13 10 -16 6 -3 10 -2 10 4 0 5 -4 13 -10 16 -5
3 -10 2 -10 -4z" />
    <path d="M2210 1830 c0 -7 3 -10 7 -7 3 4 3 10 0 14 -4 3 -7 0 -7 -7z" />
    <path d="M1510 1815 c0 -14 76 -155 83 -155 l9 0 -7 18 c-5 9 -8 25 -9 34 0 9
-2 15 -5 13 -2 -3 -17 18 -33 45 -25 45 -38 60 -38 45z" />
    <path d="M1600 1645 c0 -12 32 -67 36 -62 7 6 -13 54 -25 62 -6 3 -11 3 -11 0z" />
    <path d="M2347 1627 l5 -24 -14 -14 c-15 -16 -24 -54 -10 -46 4 4 15 24 22 47
l13 41 -10 10 -11 11 5 -25z" />
    <path d="M2325 1620 c3 -5 8 -10 11 -10 3 0 2 5 -1 10 -3 6 -8 10 -11 10 -3 0
-2 -4 1 -10z" />
    <path d="M1640 1567 c0 -10 49 -107 98 -191 l40 -68 6 11 7 11 -11 0 c-6 0 -8
5 -5 10 3 6 2 10 -4 10 -9 0 -21 25 -21 43 1 4 -6 15 -15 24 -9 8 -14 22 -11
30 l6 14 -10 -6 c-9 -6 -14 8 -11 28 1 5 -2 6 -7 3 -5 -3 -14 6 -21 20 -14 31
-14 37 1 28 l11 -7 -7 12 c-5 7 -10 10 -14 7 -3 -3 -11 2 -18 12 -7 9 -14 13
-14 9z" />
    <path d="M2280 1530 c0 -7 3 -10 7 -7 3 4 3 10 0 14 -4 3 -7 0 -7 -7z" />
    <path d="M2291 1479 c-10 -24 -22 -55 -25 -69 l-6 -25 17 35 c35 74 43 93 38
98 -3 3 -13 -15 -24 -39z" />
    <path d="M2235 1350 c3 -5 8 -10 11 -10 2 0 4 5 4 10 0 6 -5 10 -11 10 -5 0
-7 -4 -4 -10z" />
    <path d="M2224 1314 c-4 -10 -13 -26 -21 -36 l-14 -16 9 -6 c9 -6 46 63 38 72
-3 3 -9 -4 -12 -14z" />
    <path d="M2185 1240 c3 -5 8 -10 11 -10 3 0 2 5 -1 10 -3 6 -8 10 -11 10 -3 0
-2 -4 1 -10z" />
    <path d="M2176 1193 l-7 -18 12 12 c7 7 10 15 7 18 -3 3 -9 -2 -12 -12z" />
    <path d="M1845 1190 c-6 -9 50 -130 65 -140 4 -3 31 -51 59 -107 28 -57 56
-103 61 -103 14 0 87 166 77 176 -6 6 -30 -33 -34 -56 -4 -28 -33 -89 -44 -96
l-12 -7 7 11 c3 5 3 12 -2 14 -4 1 -22 30 -39 64 l-32 61 12 12 12 12 -16 -6
-16 -6 -13 30 c-7 17 -18 31 -24 31 l-11 0 15 10 15 10 -16 0 -15 0 -19 38
c-11 20 -19 43 -18 50 1 14 -4 16 -12 2z" />
    <path d="M1903 1113 c4 -3 10 -3 14 0 3 4 0 7 -7 7 -7 0 -10 -3 -7 -7z" />
    <path d="M2127 1093 c-2 -5 -7 -21 -11 -38 l-7 -30 10 10 c11 11 26 65 18 65
-3 0 -8 -3 -10 -7z" />
  </g>
  <g transform="translate(0.000000,401.000000) scale(0.100000,-0.100000)" fill="#e4e4e4" stroke="none">
    <path d="M1349 3107 c5 -5 21 -7 37 -5 l29 4 -37 5 -38 5 9 -9z" />
    <path d="M2783 3103 c4 -3 10 -3 14 0 3 4 0 7 -7 7 -7 0 -10 -3 -7 -7z" />
    <path d="M1440 3090 c8 -5 20 -10 25 -10 6 0 3 5 -5 10 -8 5 -19 10 -25 10 -5
0 -3 -5 5 -10z" />
    <path d="M2857 3060 c12 -14 26 -36 32 -50 l10 -25 0 18 c1 9 -14 32 -31 50
-18 18 -23 21 -11 7z" />
    <path d="M870 3061 c0 -6 4 -13 10 -16 l10 -6 -6 15 c-7 18 -14 21 -14 7z" />
    <path d="M1521 3057 c2 -1 13 -9 24 -17 l20 -15 -14 18 c-7 9 -18 17 -24 17
-6 0 -8 -1 -6 -3z" />
    <path d="M2275 3050 c3 -5 8 -10 11 -10 3 0 2 5 -1 10 -3 6 -8 10 -11 10 -3 0
-2 -4 1 -10z" />
    <path d="M2290 3020 c0 -7 3 -10 7 -7 3 4 3 10 0 14 -4 3 -7 0 -7 -7z" />
    <path d="M1585 3010 c3 -5 16 -15 28 -21 l22 -12 -19 22 c-19 21 -43 30 -31
11z" />
    <path d="M910 2990 c0 -7 3 -10 7 -7 3 4 3 10 0 14 -4 3 -7 0 -7 -7z" />
    <path d="M1665 2925 c40 -56 51 -66 29 -27 -10 18 -28 41 -38 50 l-20 17 29
-40z" />
    <path d="M957 2895 c9 -19 18 -33 21 -31 4 5 -26 66 -33 66 -3 0 3 -16 12 -35z" />
    <path d="M2377 2855 c15 -30 29 -53 31 -51 4 5 -46 106 -53 106 -3 0 7 -25 22
-55z" />
    <path d="M2890 2900 c0 -7 3 -10 7 -7 3 4 3 10 0 14 -4 3 -7 0 -7 -7z" />
    <path d="M1710 2851 c0 -6 4 -13 10 -16 l10 -6 -6 15 c-7 18 -14 21 -14 7z" />
    <path d="M2860 2830 c0 -7 3 -10 7 -7 3 4 3 10 0 14 -4 3 -7 0 -7 -7z" />
    <path d="M1000 2815 c0 -5 5 -17 10 -25 5 -8 10 -10 10 -5 0 6 -5 17 -10 25
-5 8 -10 11 -10 5z" />
    <path d="M1740 2791 c0 -6 4 -13 10 -16 l10 -6 -6 15 c-7 18 -14 21 -14 7z" />
    <path d="M1025 2760 c3 -5 8 -10 11 -10 3 0 2 5 -1 10 -3 6 -8 10 -11 10 -3 0
-2 -4 1 -10z" />
    <path d="M2826 2753 l-7 -18 12 12 c7 7 10 15 7 18 -3 3 -9 -2 -12 -12z" />
    <path d="M2436 2747 c3 -10 9 -15 12 -12 3 3 0 11 -7 18 l-12 12 7 -18z" />
    <path d="M1776 2727 c3 -10 9 -15 12 -12 3 3 0 11 -7 18 l-12 12 7 -18z" />
    <path d="M2806 2705 c-9 -26 -7 -32 5 -12 6 10 9 21 6 23 -2 3 -7 -2 -11 -11z" />
    <path d="M1066 2687 c3 -10 9 -15 12 -12 3 3 0 11 -7 18 l-12 12 7 -18z" />
    <path d="M1810 2666 c0 -10 70 -146 75 -146 3 0 -11 33 -31 73 -38 74 -44 85
-44 73z" />
    <path d="M2530 2560 c22 -44 42 -80 45 -80 3 0 -13 36 -35 80 -22 44 -42 80
-45 80 -3 0 13 -36 35 -80z" />
    <path d="M1135 2550 c19 -38 38 -70 40 -70 3 0 -11 32 -30 70 -19 39 -38 70
-40 70 -3 0 11 -31 30 -70z" />
    <path d="M2747 2561 l-6 -24 11 11 c5 5 8 16 6 23 l-4 13 -7 -23z" />
    <path d="M2726 2515 c-9 -26 -7 -32 5 -12 6 10 9 21 6 23 -2 3 -7 -2 -11 -11z" />
    <path d="M1900 2481 c0 -5 7 -11 14 -14 l15 -6 -6 15 c-6 15 -23 19 -23 5z" />
    <path d="M2701 2453 l-11 -28 15 19 c8 11 15 23 15 28 0 15 -7 8 -19 -19z" />
    <path d="M1950 2411 c0 -6 4 -13 10 -16 l10 -6 -6 15 c-7 18 -14 21 -14 7z" />
    <path d="M2675 2389 c-4 -6 -5 -12 -2 -15 2 -3 7 2 10 11 7 17 1 20 -8 4z" />
    <path d="M1971 2375 c0 -5 13 -35 29 -65 16 -30 29 -50 29 -45 0 6 -13 35 -29
65 -16 30 -29 51 -29 45z" />
    <path d="M1260 2296 c0 -2 7 -9 15 -16 l15 -13 -6 17 c-3 9 -10 16 -15 16 -5
0 -9 -2 -9 -4z" />
    <path d="M1290 2256 c0 -15 55 -126 63 -126 4 0 -7 28 -24 63 -33 65 -39 75
-39 63z" />
    <path d="M2045 2220 c9 -16 18 -30 21 -30 2 0 -2 14 -11 30 -9 17 -18 30 -21
30 -2 0 2 -13 11 -30z" />
    <path d="M2145 2030 c9 -16 18 -30 21 -30 2 0 -2 14 -11 30 -9 17 -18 30 -21
30 -2 0 2 -13 11 -30z" />
    <path d="M1460 1918 c16 -33 34 -66 41 -72 6 -6 -5 22 -25 62 -20 39 -38 72
-41 72 -2 0 9 -28 25 -62z" />
    <path d="M2200 1920 c11 -22 23 -40 25 -40 3 0 -4 18 -15 40 -11 22 -23 40
-25 40 -3 0 4 -18 15 -40z" />
    <path d="M2240 1841 c0 -6 4 -13 10 -16 l10 -6 -6 15 c-7 18 -14 21 -14 7z" />
    <path d="M2322 1685 c12 -24 23 -43 26 -41 4 5 -36 86 -43 86 -3 0 5 -20 17
-45z" />
    <path d="M1635 1580 c25 -49 47 -90 50 -90 3 0 -15 41 -40 90 -25 50 -47 90
-50 90 -3 0 15 -40 40 -90z" />
    <path d="M2340 1590 c0 -7 3 -10 7 -7 3 4 3 10 0 14 -4 3 -7 0 -7 -7z" />
    <path d="M1760 1340 c6 -11 13 -20 16 -20 2 0 0 9 -6 20 -6 11 -13 20 -16 20
-2 0 0 -9 6 -20z" />
    <path d="M1797 1265 c9 -19 18 -33 21 -31 4 5 -26 66 -33 66 -3 0 3 -16 12
-35z" />
    <path d="M2186 1225 c-9 -26 -7 -32 5 -12 6 10 9 21 6 23 -2 3 -7 -2 -11 -11z" />
    <path d="M2156 1153 l-7 -18 12 12 c7 7 10 15 7 18 -3 3 -9 -2 -12 -12z" />
    <path d="M2132 1095 c-17 -37 -14 -45 4 -12 9 16 14 31 11 33 -2 2 -9 -7 -15
-21z" />
    <path d="M1903 1063 c4 -3 10 -3 14 0 3 4 0 7 -7 7 -7 0 -10 -3 -7 -7z" />
    <path d="M2102 1023 c-5 -15 -18 -46 -27 -68 -9 -22 -12 -35 -7 -30 13 13 54
116 49 122 -3 2 -9 -9 -15 -24z" />
    <path d="M1940 1010 c6 -11 13 -20 16 -20 2 0 0 9 -6 20 -6 11 -13 20 -16 20
-2 0 0 -9 6 -20z" />
    <path d="M1960 976 c0 -11 50 -106 55 -106 3 0 -7 24 -21 53 -28 55 -34 65
-34 53z" />
    <path d="M2030 860 l-15 -10 12 0 c6 0 15 5 18 10 8 12 4 12 -15 0z" />
  </g>
  <g transform="translate(0.000000,401.000000) scale(0.100000,-0.100000)" fill="#ebebeb" stroke="none">
    <path d="M888 3113 c6 -2 18 -2 25 0 6 3 1 5 -13 5 -14 0 -19 -2 -12 -5z" />
    <path d="M2288 3113 c12 -2 30 -2 40 0 9 3 -1 5 -23 4 l-40 0 23 -4z" />
    <path d="M860 3081 c0 -6 4 -13 10 -16 l10 -6 -6 15 c-7 18 -14 21 -14 7z" />
    <path d="M1480 3076 c14 -9 29 -15 35 -16 l9 0 -9 9 c-6 5 -21 12 -35 15 l-25
7 25 -15z" />
    <path d="M2260 3085 c0 -5 5 -17 10 -25 5 -8 10 -10 10 -5 0 6 -5 17 -10 25
-5 8 -10 11 -10 5z" />
    <path d="M880 3041 c0 -6 4 -13 10 -16 l10 -6 -6 15 c-7 18 -14 21 -14 7z" />
    <path d="M1553 3033 c4 -3 10 -3 14 0 3 4 0 7 -7 7 -7 0 -10 -3 -7 -7z" />
    <path d="M2885 3020 c3 -5 8 -10 11 -10 3 0 2 5 -1 10 -3 6 -8 10 -11 10 -3 0
-2 -4 1 -10z" />
    <path d="M1580 3016 c0 -2 7 -9 15 -16 l15 -12 0 10 c0 5 -7 12 -15 16 -8 3
-15 4 -15 2z" />
    <path d="M2295 3010 c3 -5 8 -10 11 -10 3 0 2 5 -1 10 -3 6 -8 10 -11 10 -3 0
-2 -4 1 -10z" />
    <path d="M905 3000 c3 -5 8 -10 11 -10 3 0 2 5 -1 10 -3 6 -8 10 -11 10 -3 0
-2 -4 1 -10z" />
    <path d="M1620 2981 c0 -5 7 -15 17 -22 l16 -14 -12 23 c-12 23 -21 28 -21 13z" />
    <path d="M2337 2935 c9 -19 18 -33 21 -31 4 5 -26 66 -33 66 -3 0 3 -16 12
-35z" />
    <path d="M2902 2950 c0 -14 2 -19 5 -12 2 6 2 18 0 25 -3 6 -5 1 -5 -13z" />
    <path d="M1670 2920 c0 -7 3 -10 7 -7 3 4 3 10 0 14 -4 3 -7 0 -7 -7z" />
    <path d="M2885 2889 c-4 -6 -5 -12 -2 -15 2 -3 7 2 10 11 7 17 1 20 -8 4z" />
    <path d="M985 2840 c9 -16 18 -30 21 -30 2 0 -2 14 -11 30 -9 17 -18 30 -21
30 -2 0 2 -13 11 -30z" />
    <path d="M2405 2800 c3 -5 8 -10 11 -10 3 0 2 5 -1 10 -3 6 -8 10 -11 10 -3 0
-2 -4 1 -10z" />
    <path d="M2841 2783 l-11 -28 15 19 c8 11 15 23 15 28 0 15 -7 8 -19 -19z" />
    <path d="M1016 2777 c3 -10 9 -15 12 -12 3 3 0 11 -7 18 l-12 12 7 -18z" />
    <path d="M2820 2740 c0 -7 3 -10 7 -7 3 4 3 10 0 14 -4 3 -7 0 -7 -7z" />
    <path d="M1805 2670 c3 -5 8 -10 11 -10 3 0 2 5 -1 10 -3 6 -8 10 -11 10 -3 0
-2 -4 1 -10z" />
    <path d="M2780 2640 c0 -7 3 -10 7 -7 3 4 3 10 0 14 -4 3 -7 0 -7 -7z" />
    <path d="M1840 2600 c0 -7 3 -10 7 -7 3 4 3 10 0 14 -4 3 -7 0 -7 -7z" />
    <path d="M2756 2583 l-7 -18 12 12 c7 7 10 15 7 18 -3 3 -9 -2 -12 -12z" />
    <path d="M2570 2487 c0 -10 69 -147 75 -147 2 0 2 7 -1 15 -11 27 -74 140 -74
132z" />
    <path d="M1903 2473 c4 -3 10 -3 14 0 3 4 0 7 -7 7 -7 0 -10 -3 -7 -7z" />
    <path d="M1195 2430 c3 -5 8 -10 11 -10 3 0 2 5 -1 10 -3 6 -8 10 -11 10 -3 0
-2 -4 1 -10z" />
    <path d="M2687 2421 l-6 -24 11 11 c5 5 8 16 6 23 l-4 13 -7 -23z" />
    <path d="M1945 2420 c3 -5 8 -10 11 -10 3 0 2 5 -1 10 -3 6 -8 10 -11 10 -3 0
-2 -4 1 -10z" />
    <path d="M1960 2391 c0 -6 4 -13 10 -16 l10 -6 -6 15 c-7 18 -14 21 -14 7z" />
    <path d="M2666 2364 c-4 -9 -4 -19 -1 -22 2 -3 7 3 11 12 4 9 4 19 1 22 -2 3
-7 -3 -11 -12z" />
    <path d="M1260 2300 c0 -5 5 -10 11 -10 5 0 7 5 4 10 -3 6 -8 10 -11 10 -2 0
-4 -4 -4 -10z" />
    <path d="M1280 2271 c0 -6 4 -13 10 -16 l10 -6 -6 15 c-7 18 -14 21 -14 7z" />
    <path d="M2030 2250 c0 -7 3 -10 7 -7 3 4 3 10 0 14 -4 3 -7 0 -7 -7z" />
    <path d="M1303 2213 c4 -3 10 -3 14 0 3 4 0 7 -7 7 -7 0 -10 -3 -7 -7z" />
    <path d="M1323 2173 c4 -3 10 -3 14 0 3 4 0 7 -7 7 -7 0 -10 -3 -7 -7z" />
    <path d="M1353 2115 c7 -14 15 -25 20 -25 4 0 7 -6 7 -14 0 -8 5 -18 12 -22
l11 -7 -4 9 c-34 65 -45 84 -50 84 -4 0 -2 -11 4 -25z" />
    <path d="M1400 2031 c0 -6 4 -13 10 -16 l10 -6 -6 15 c-7 18 -14 21 -14 7z" />
    <path d="M2161 2005 c0 -5 6 -21 14 -35 8 -14 14 -20 14 -15 0 6 -6 21 -14 35
-8 14 -14 21 -14 15z" />
    <path d="M1483 1863 c4 -3 10 -3 14 0 3 4 0 7 -7 7 -7 0 -10 -3 -7 -7z" />
    <path d="M1500 1835 c0 -2 13 -26 28 -52 15 -26 36 -65 45 -85 18 -39 31 -52
20 -20 -9 25 -84 162 -89 162 -2 0 -4 -2 -4 -5z" />
    <path d="M2316 1535 c-9 -26 -7 -32 5 -12 6 10 9 21 6 23 -2 3 -7 -2 -11 -11z" />
    <path d="M1680 1494 c0 -5 7 -18 15 -28 8 -11 15 -16 15 -10 0 5 -7 18 -15 28
-8 11 -15 16 -15 10z" />
    <path d="M2290 1470 c0 -7 3 -10 7 -7 3 4 3 10 0 14 -4 3 -7 0 -7 -7z" />
    <path d="M2270 1420 c0 -7 3 -10 7 -7 3 4 3 10 0 14 -4 3 -7 0 -7 -7z" />
    <path d="M2255 1389 c-4 -6 -5 -12 -2 -15 2 -3 7 2 10 11 7 17 1 20 -8 4z" />
    <path d="M2236 1345 c-9 -26 -7 -32 5 -12 6 10 9 21 6 23 -2 3 -7 -2 -11 -11z" />
    <path d="M1770 1325 c0 -5 5 -17 10 -25 5 -8 10 -10 10 -5 0 6 -5 17 -10 25
-5 8 -10 11 -10 5z" />
    <path d="M2210 1280 c0 -7 3 -10 7 -7 3 4 3 10 0 14 -4 3 -7 0 -7 -7z" />
    <path d="M1825 1210 c9 -16 18 -30 21 -30 2 0 -2 14 -11 30 -9 17 -18 30 -21
30 -2 0 2 -13 11 -30z" />
    <path d="M2184 1218 l-7 -11 11 7 c12 7 16 16 8 16 -3 0 -8 -5 -12 -12z" />
    <path d="M2150 1140 c0 -7 3 -10 7 -7 3 4 3 10 0 14 -4 3 -7 0 -7 -7z" />
    <path d="M2124 1078 l-7 -11 11 7 c12 7 16 16 8 16 -3 0 -8 -5 -12 -12z" />
    <path d="M2094 998 l-7 -11 11 7 c12 7 16 16 8 16 -3 0 -8 -5 -12 -12z" />
    <path d="M1950 991 c0 -6 4 -13 10 -16 l10 -6 -6 15 c-7 18 -14 21 -14 7z" />
    <path d="M2076 953 l-7 -18 12 12 c7 7 10 15 7 18 -3 3 -9 -2 -12 -12z" />
    <path d="M2050 895 c-6 -15 -8 -30 -6 -33 3 -3 10 8 16 23 6 15 8 30 6 33 -3
3 -10 -8 -16 -23z" />
    <path d="M2010 871 c0 -6 4 -13 10 -16 l10 -6 -6 15 c-7 18 -14 21 -14 7z" />
  </g>
  <g transform="translate(0.000000,401.000000) scale(0.100000,-0.100000)" fill="#dbdbdb" stroke="none">
    <path d="M1423 3093 c4 -3 10 -3 14 0 3 4 0 7 -7 7 -7 0 -10 -3 -7 -7z" />
    <path d="M1481 3076 c2 -2 15 -9 29 -15 l25 -12 -19 15 c-11 9 -24 16 -30 16
-5 0 -7 -2 -5 -4z" />
    <path d="M1560 3036 c0 -2 8 -10 18 -17 l17 -14 -14 18 c-13 16 -21 21 -21 13z" />
    <path d="M2680 2400 c0 -7 3 -10 7 -7 3 4 3 10 0 14 -4 3 -7 0 -7 -7z" />
    <path d="M2025 2260 c3 -5 8 -10 11 -10 3 0 2 5 -1 10 -3 6 -8 10 -11 10 -3 0
-2 -4 1 -10z" />
    <path d="M1500 1841 c0 -6 4 -13 10 -16 l10 -6 -6 15 c-7 18 -14 21 -14 7z" />
    <path d="M2060 920 c0 -7 3 -10 7 -7 3 4 3 10 0 14 -4 3 -7 0 -7 -7z" />
  </g>
  <g transform="translate(0.000000,401.000000) scale(0.100000,-0.100000)" fill="#d4d4d4" stroke="none" />
  <g transform="translate(0.000000,401.000000) scale(0.100000,-0.100000)" fill="#cfcfcf" stroke="none" />
  <g transform="translate(0.000000,401.000000) scale(0.100000,-0.100000)" fill="#000000" stroke="none" />
  <g transform="translate(0.000000,401.000000) scale(0.100000,-0.100000)" fill="#000000" stroke="none" />
  <g transform="translate(0.000000,401.000000) scale(0.100000,-0.100000)" fill="#000000" stroke="none" />
  <g transform="translate(0.000000,401.000000) scale(0.100000,-0.100000)" fill="#000000" stroke="none" />
  <g transform="translate(0.000000,401.000000) scale(0.100000,-0.100000)" fill="#000000" stroke="none" />
  <g transform="translate(0.000000,401.000000) scale(0.100000,-0.100000)" fill="#000000" stroke="none" />
  <g transform="translate(0.000000,401.000000) scale(0.100000,-0.100000)" fill="#000000" stroke="none" />
  <g transform="translate(0.000000,401.000000) scale(0.100000,-0.100000)" fill="#ffffff" stroke="none" />
  <g transform="translate(0.000000,401.000000) scale(0.100000,-0.100000)" fill="#0000ff" stroke="none" />
  <g transform="translate(0.000000,401.000000) scale(0.100000,-0.100000)" fill="#ff00ff" stroke="none" />
  <g transform="translate(0.000000,401.000000) scale(0.100000,-0.100000)" fill="#000000" stroke="none" />
  <g transform="translate(0.000000,401.000000) scale(0.100000,-0.100000)" fill="#ffff00" stroke="none" />
  <g transform="translate(0.000000,401.000000) scale(0.100000,-0.100000)" fill="#00ff00" stroke="none" />
  <g transform="translate(0.000000,401.000000) scale(0.100000,-0.100000)" fill="#ff0000" stroke="none" />
  <g transform="translate(0.000000,401.000000) scale(0.100000,-0.100000)" fill="#c0c0c0" stroke="none" />
  <g transform="translate(0.000000,401.000000) scale(0.100000,-0.100000)" fill="#808080" stroke="none" />
  <g transform="translate(0.000000,401.000000) scale(0.100000,-0.100000)" fill="#00ffff" stroke="none" />
  <g transform="translate(0.000000,401.000000) scale(0.100000,-0.100000)" fill="#000000" stroke="none" />
</svg>