<?xml version="1.0" standalone="no"?>
<!DOCTYPE svg PUBLIC "-//W3C//DTD SVG 20010904//EN"
 "http://www.w3.org/TR/2001/REC-SVG-20010904/DTD/svg10.dtd">
<svg version="1.0" xmlns="http://www.w3.org/2000/svg"
 width="377.000000pt" height="401.000000pt" viewBox="0 0 377.000000 401.000000"
 preserveAspectRatio="xMidYMid meet">

<g transform="translate(0.000000,401.000000) scale(0.100000,-0.100000)"
fill="#000000" stroke="none">
<path d="M0 2005 l0 -2005 1885 0 1885 0 0 2005 0 2005 -1885 0 -1885 0 0
-2005z m1429 1086 c33 -10 80 -30 104 -44 101 -59 121 -92 474 -779 l333 -645
-162 -386 c-89 -213 -165 -387 -168 -387 -4 0 -397 757 -853 1644 -54 105
-147 287 -208 404 l-110 212 265 0 c231 0 272 -2 325 -19z m1371 1 c50 -25 80
-75 80 -133 0 -38 -24 -104 -121 -336 -66 -158 -122 -289 -124 -291 -1 -2 -65
118 -140 265 -76 147 -167 323 -202 391 l-65 122 269 0 c235 0 272 -2 303 -18z"/>
</g>
</svg>
